<?xml version="1.0" encoding="UTF-8" standalone="no"?><!DOCTYPE svg PUBLIC "-//W3C//DTD SVG 1.1//EN" "http://www.w3.org/Graphics/SVG/1.1/DTD/svg11.dtd"><svg width="100%" height="100%" viewBox="0 0 1228 301" version="1.1" xmlns="http://www.w3.org/2000/svg" xmlns:xlink="http://www.w3.org/1999/xlink" xml:space="preserve" xmlns:serif="http://www.serif.com/" style="fill-rule:evenodd;clip-rule:evenodd;stroke-linejoin:round;stroke-miterlimit:2;"><g><g id="logo"><path id="path1" d="M22.012,205.541l-20.012,-190.5l68.571,-0l84.44,75.362l86.727,-75.407l68.776,-0.059l-19.648,189.835l-109.365,94.228l-1.158,-59.605l53.44,-51.707l12.871,-107.752l-90.977,87.566l-90.476,-88.724l13.363,108.466l52.307,51.964l-0.511,59.792l-108.348,-93.459Z" style="fill:url(#_Linear1);fill-rule:nonzero;stroke:url(#_Linear2);stroke-width:3.06px;"/></g><path d="M334.375,300.691l11.322,-0l0,-20.502l30.192,-0c7.548,-0 12.077,-3.038 12.077,-9.112l-0,-11.391c-0,-6.074 -4.529,-9.112 -12.077,-9.112l-41.514,0l0,50.117Zm11.322,-26.957l0,-16.705l27.928,-0c1.887,-0 3.019,0.759 3.019,2.278l-0,12.149c-0,1.519 -1.132,2.278 -3.019,2.278l-27.928,0Z" style="fill:url(#_Linear3);fill-rule:nonzero;"/><path d="M397.778,300.691l11.322,-0l0,-24.679l30.947,0l-0,24.679l11.322,-0l-0,-50.117l-11.322,0l-0,18.984l-30.947,-0l0,-18.984l-11.322,0l0,50.117Z" style="fill:url(#_Linear4);fill-rule:nonzero;"/><path d="M462.691,300.691l11.321,-0l0,-20.502l30.192,-0c7.548,-0 12.077,-3.038 12.077,-9.112l0,-11.391c0,-6.074 -4.529,-9.112 -12.077,-9.112l-41.513,0l-0,50.117Zm11.321,-26.957l0,-16.705l27.928,-0c1.887,-0 3.019,0.759 3.019,2.278l0,12.149c0,1.519 -1.132,2.278 -3.019,2.278l-27.928,0Z" style="fill:url(#_Linear5);fill-rule:nonzero;"/><path d="M548.36,250.574l16.605,50.117l14.719,-0l12.831,-38.727l12.832,38.727l14.718,-0l16.606,-50.117l-11.322,0l-13.209,39.866l-13.209,-39.866l-12.831,0l-13.209,39.866l-13.209,-39.866l-11.322,0Z" style="fill:url(#_Linear6);fill-rule:nonzero;"/><path d="M640.037,292.338c0,5.695 4.151,8.353 11.322,8.353l29.437,-0l-0,-5.695l-27.55,-0c-1.887,-0 -2.642,-0.759 -2.642,-1.899l0,-9.491l31.702,-0l-0,-11.011c-0,-5.695 -4.152,-8.353 -11.322,-8.353l-19.625,0c-7.171,0 -11.322,2.658 -11.322,8.353l0,19.743Zm10.567,-14.427l0,-6.075c0,-1.139 0.755,-1.899 2.642,-1.899l15.851,0c1.887,0 2.641,0.76 2.641,1.899l0,6.075l-21.134,-0Z" style="fill:url(#_Linear7);fill-rule:nonzero;"/><path d="M692.118,300.691l30.947,-0c7.17,-0 11.321,-2.658 11.321,-8.353l0,-19.743c0,-5.695 -4.151,-8.353 -11.321,-8.353l-20.38,0l0,-13.668l-10.567,0l-0,50.117Zm10.567,-5.695l0,-25.059l18.493,0c1.887,0 2.641,0.76 2.641,1.899l0,21.261c0,1.14 -0.754,1.899 -2.641,1.899l-18.493,-0Z" style="fill:url(#_Linear8);fill-rule:nonzero;"/><path d="M771.371,300.691l11.322,-0l0,-24.679l35.476,0l-0,-6.454l-35.476,-0l0,-12.529l39.25,-0l-0,-6.455l-50.572,0l0,50.117Z" style="fill:url(#_Linear9);fill-rule:nonzero;"/><path d="M827.966,300.691l10.567,-0l0,-28.855c0,-1.139 0.755,-1.899 2.642,-1.899l11.699,0l0,-5.695l-13.586,0c-7.171,0 -11.322,2.658 -11.322,8.353l-0,28.096Z" style="fill:url(#_Linear10);fill-rule:nonzero;"/><path d="M858.905,292.338c-0,5.695 4.151,8.353 11.322,8.353l30.946,-0l0,-28.096c0,-5.695 -4.151,-8.353 -11.321,-8.353l-27.928,0l0,5.695l26.041,0c1.887,0 2.641,0.76 2.641,1.899l0,6.075l-20.379,-0c-7.171,-0 -11.322,2.657 -11.322,8.352l-0,6.075Zm10.567,0.759l0,-7.593c0,-1.139 0.755,-1.898 2.642,-1.898l18.492,-0l0,11.39l-18.492,-0c-1.887,-0 -2.642,-0.759 -2.642,-1.899Z" style="fill:url(#_Linear11);fill-rule:nonzero;"/><path d="M910.986,300.691l10.567,-0l-0,-30.754l12.454,0c1.887,0 2.642,0.76 2.642,1.899l-0,28.855l10.567,-0l-0,-30.754l12.454,0c1.887,0 2.642,0.76 2.642,1.899l-0,28.855l10.567,-0l0,-28.096c0,-5.695 -4.151,-8.353 -11.322,-8.353l-50.571,0l-0,36.449Z" style="fill:url(#_Linear12);fill-rule:nonzero;"/><path d="M982.691,292.338c0,5.695 4.152,8.353 11.322,8.353l29.437,-0l0,-5.695l-27.55,-0c-1.887,-0 -2.641,-0.759 -2.641,-1.899l-0,-9.491l31.701,-0l-0,-11.011c-0,-5.695 -4.151,-8.353 -11.322,-8.353l-19.625,0c-7.17,0 -11.322,2.658 -11.322,8.353l0,19.743Zm10.568,-14.427l-0,-6.075c-0,-1.139 0.754,-1.899 2.641,-1.899l15.851,0c1.887,0 2.642,0.76 2.642,1.899l-0,6.075l-21.134,-0Z" style="fill:url(#_Linear13);fill-rule:nonzero;"/><path d="M1031,264.242l12.077,36.449l11.322,-0l8.68,-26.197l8.68,26.197l11.322,-0l12.077,-36.449l-9.812,0l-8.681,26.198l-8.68,-26.198l-9.812,0l-8.68,26.198l-8.68,-26.198l-9.813,0Z" style="fill:url(#_Linear14);fill-rule:nonzero;"/><path d="M1101.19,292.338c0,5.695 4.152,8.353 11.322,8.353l19.625,-0c7.171,-0 11.322,-2.658 11.322,-8.353l-0,-19.743c-0,-5.695 -4.151,-8.353 -11.322,-8.353l-19.625,0c-7.17,0 -11.322,2.658 -11.322,8.353l0,19.743Zm10.567,0.759l0,-21.261c0,-1.139 0.755,-1.899 2.642,-1.899l15.851,0c1.887,0 2.642,0.76 2.642,1.899l-0,21.261c-0,1.14 -0.755,1.899 -2.642,1.899l-15.851,-0c-1.887,-0 -2.642,-0.759 -2.642,-1.899Z" style="fill:url(#_Linear15);fill-rule:nonzero;"/><path d="M1153.28,300.691l10.567,-0l0,-28.855c0,-1.139 0.755,-1.899 2.642,-1.899l11.699,0l0,-5.695l-13.586,0c-7.17,0 -11.322,2.658 -11.322,8.353l0,28.096Z" style="fill:url(#_Linear16);fill-rule:nonzero;"/><path d="M1185.73,300.691l10.568,-0l-0,-6.075l6.793,-6.834l12.831,12.909l12.077,-0l-18.87,-18.984l17.36,-17.465l-12.076,0l-18.115,18.225l-0,-31.893l-10.568,0l0,50.117Z" style="fill:url(#_Linear17);fill-rule:nonzero;"/><path d="M334.984,214.137l31.692,-198.42l72.754,-0l24.251,83.777c0.368,1.837 0.919,4.777 1.654,8.819c0.735,4.042 1.286,7.9 1.653,11.574l0.276,6.89l1.654,-15.433c0.734,-5.879 1.469,-9.829 2.204,-11.85l23.976,-83.777l73.03,-0l31.692,198.42l-71.652,-0l-6.338,-76.612c-0,-3.308 -0.276,-15.525 -0.276,-18.465l0,-4.133l0.551,-15.984l-0.827,5.511l-2.204,11.024l-3.858,19.842l-0.276,1.653l-22.047,77.164l-51.258,-0l-21.771,-77.164l-0.276,-1.102l-3.858,-20.393l-3.307,-16.535l0.551,6.889l0,11.988c0,3.767 0.092,7.303 0.276,10.61l-0,6.063c-0.368,1.47 -0.552,2.48 -0.552,3.032l-6.062,76.612l-71.652,-0Z" style="fill:url(#_Linear18);fill-rule:nonzero;stroke:url(#_Linear19);stroke-width:1.25px;"/><path d="M758.005,125.95l-77.164,39.133l1.378,1.929c2.94,2.94 5.971,4.409 9.095,4.409c1.286,0 2.847,-0.367 4.684,-1.102c1.838,-0.735 3.583,-2.021 5.237,-3.858l0.551,-1.103l0.826,-1.102l42.992,25.905c-5.512,7.349 -12.31,13.458 -20.394,18.326c-8.083,4.869 -16.994,8.222 -26.731,10.059c-5.144,0.919 -9.921,1.378 -14.331,1.378c-13.411,0 -25.813,-3.399 -37.203,-10.197c-24.252,-13.779 -36.377,-34.448 -36.377,-62.006c-0,-4.226 0.459,-9.094 1.377,-14.606c2.389,-15.616 9.003,-28.936 19.842,-39.959c10.84,-11.024 24.068,-18.005 39.685,-20.945c4.776,-0.735 8.129,-1.148 10.058,-1.24c1.929,-0.092 3.445,-0.138 4.547,-0.138c4.961,0 9.83,0.551 14.606,1.654c26.273,5.695 44.553,20.944 54.842,45.747l2.48,7.716Zm-66.14,-9.921c-3.675,-0 -6.339,0.276 -7.992,0.827c-5.512,1.653 -9.554,4.501 -12.126,8.543c-2.572,4.042 -3.858,8.084 -3.858,12.126c-0,1.469 0.367,3.49 1.102,6.062l38.031,-19.286c-1.837,-2.389 -4.042,-4.364 -6.614,-5.925c-2.572,-1.565 -5.42,-2.347 -8.543,-2.347Z" style="fill:url(#_Linear20);fill-rule:nonzero;stroke:url(#_Linear21);stroke-width:1.25px;"/><path d="M766.823,214.137l0,-108.081l63.385,-38.047l-0,21.84l3.307,-3.032c10.839,-9.921 23.792,-14.881 38.857,-14.881l5.236,-0c1.47,-0 3.399,0.275 5.787,0.826c2.389,0.552 4.456,1.011 6.201,1.378c1.745,0.368 4.18,1.194 7.303,2.481l-21.22,63.935c-1.102,-1.102 -2.664,-2.297 -4.685,-3.583c-2.021,-1.286 -4.088,-2.342 -6.201,-3.169c-2.112,-0.827 -4.73,-1.24 -7.854,-1.24c-5.695,-0 -10.518,1.699 -14.468,5.098c-3.95,3.399 -6.292,7.349 -7.027,11.85c-0.735,4.502 -1.103,9.324 -1.103,14.469l0,50.156l-67.518,-0Z" style="fill:url(#_Linear22);fill-rule:nonzero;stroke:url(#_Linear23);stroke-width:1.25px;"/><path d="M896.899,214.137l-0,-167.663l67.518,-37.716l-0,205.379l-67.518,-0Z" style="fill:url(#_Linear24);fill-rule:nonzero;stroke:url(#_Linear25);stroke-width:1.25px;"/><path d="M984.259,214.137l-0,-107.478l67.518,-37.755l-0,145.233l-67.518,-0Zm0.276,-176.649c-0,-9.738 3.49,-18.097 10.472,-25.078c6.981,-6.982 15.432,-10.473 25.353,-10.473c9.738,0 18.097,3.491 25.079,10.473c3.49,3.49 6.062,7.302 7.716,11.436c1.653,4.134 2.48,8.589 2.48,13.366c0,4.593 -0.873,9.048 -2.618,13.366c-1.745,4.317 -4.363,8.13 -7.854,11.437c-6.981,6.981 -15.249,10.472 -24.803,10.472c-9.921,-0 -18.372,-3.399 -25.353,-10.197c-6.982,-6.798 -10.472,-15.065 -10.472,-24.802Z" style="fill:url(#_Linear26);fill-rule:nonzero;stroke:url(#_Linear27);stroke-width:1.25px;"/><path d="M1071.62,105.557l63.384,-37.824l0,20.462c4.41,-5.512 10.197,-9.783 17.362,-12.815c7.165,-3.031 15.708,-4.547 25.629,-4.547c15.8,0 27.972,4.456 36.515,13.366c8.543,8.911 12.815,21.45 12.815,37.617l-0,92.321l-67.518,-0l-0,-72.754c-0,-8.819 -3.399,-13.228 -10.197,-13.228c-6.798,-0 -10.196,5.511 -10.196,16.535l0.275,69.447l-67.518,-0l-0.551,-108.58Z" style="fill:url(#_Linear28);fill-rule:nonzero;stroke:url(#_Linear29);stroke-width:1.25px;"/><g id="bird"><path id="path2" d="M688.759,75.522c-0.472,-0.46 -0.634,-0.879 -0.595,-1.543c0.038,-0.658 0.261,-1.109 0.817,-1.652c0.687,-0.67 0.659,-0.69 -0.972,-0.714c-1.67,-0.025 -1.968,0.041 -2.467,0.547c-0.547,0.555 -0.799,1.424 -0.65,2.239c0.041,0.223 0.061,0.42 0.044,0.437c-0.065,0.065 -0.536,-0.463 -0.728,-0.814c-0.269,-0.496 -0.314,-1.028 -0.151,-1.805c0.073,-0.344 0.112,-0.646 0.087,-0.67c-0.024,-0.025 -1.305,-0.044 -2.847,-0.042c-2.73,0.002 -2.811,0.006 -3.136,0.163c-0.629,0.305 -1.138,1.046 -1.326,1.931l-0.099,0.468l-0.131,-0.295c-0.078,-0.176 -0.144,-0.547 -0.163,-0.922c-0.053,-1.016 0.305,-1.839 1.062,-2.443c0.805,-0.641 1.199,-0.718 3.888,-0.759c1.939,-0.029 2.217,-0.048 2.34,-0.159c0.15,-0.136 0.629,-0.881 1.892,-2.945c1.282,-2.096 1.495,-2.456 1.495,-2.529c-0,-0.038 -0.216,-0.387 -0.479,-0.776c-0.942,-1.388 -1.938,-3.638 -2.406,-5.433c-0.122,-0.467 -0.245,-0.87 -0.273,-0.893c-0.027,-0.024 -0.415,-0.323 -0.861,-0.664c-2.212,-1.694 -4.123,-3.59 -5.558,-5.515c-2.378,-3.188 -3.584,-6.319 -3.995,-10.373c-0.105,-1.03 -0.104,-3.995 0,-5.531c0.222,-3.254 0.866,-6.956 1.553,-8.932c0.297,-0.851 0.998,-2.312 1.439,-2.995c1.683,-2.607 4.195,-4.22 7.281,-4.675c1.076,-0.159 3.02,-0.107 4,0.107c2.706,0.591 4.614,1.951 5.526,3.938c0.135,0.294 0.302,0.693 0.371,0.886c0.07,0.193 0.189,0.384 0.266,0.425c0.379,0.203 1.075,0.879 1.356,1.316c0.564,0.877 0.825,1.227 0.93,1.988c0.104,0.76 -0.082,1.464 -0.345,1.853c-0.262,0.39 -0.547,0.647 -0.611,0.54c-0.475,-0.788 -1.014,-0.999 -1.535,-1.097c-0.405,-0.076 -0.621,0.04 -0.88,0.472c-0.441,0.738 -0.502,1.747 -0.153,2.523c0.28,0.62 0.742,1.006 2.339,1.952c2.481,1.469 4.742,3.238 6.964,5.448c1.985,1.975 3.136,3.291 6.2,7.092c5.234,6.494 9.293,11.067 12.245,13.798c2.09,1.934 3.829,3.381 5.85,4.869l0.391,0.288l-0.355,0.024c-0.439,0.03 -0.91,-0.061 -2.294,-0.44c-1.88,-0.516 -5.762,-1.752 -6.607,-2.105c-0.619,-0.258 -0.762,-0.046 -0.235,0.346c0.137,0.101 0.839,0.682 1.56,1.29c0.721,0.609 1.514,1.273 1.763,1.475c0.249,0.203 1.745,1.449 3.324,2.769c1.58,1.32 3.875,3.238 5.101,4.262c1.225,1.025 2.246,1.892 2.268,1.928c0.054,0.087 -0.275,0.188 -1.326,0.408c-1.294,0.27 -2.44,0.355 -4.167,0.31c-1.646,-0.043 -2.195,-0.137 -3.299,-0.567c-0.7,-0.272 -0.943,-0.456 -3.606,-2.73c-1.163,-0.994 -2.218,-1.889 -2.344,-1.989c-0.125,-0.101 -0.776,-0.647 -1.445,-1.215c-1.36,-1.154 -5.324,-4.464 -6.233,-5.205c-1.254,-1.023 -1.067,-0.933 -2.292,-1.104c-1.381,-0.194 -2.503,-0.389 -3.849,-0.672c-0.578,-0.122 -1.085,-0.201 -1.124,-0.177c-0.044,0.027 -0.073,0.605 -0.073,1.436c0,1.878 -0.185,4.49 -0.329,4.633c-0.077,0.077 -1.37,-0.208 -2.246,-0.496c-0.937,-0.308 -2.414,-1.008 -3.116,-1.476c-0.246,-0.164 -0.506,-0.299 -0.578,-0.299c-0.099,-0 -0.177,0.152 -0.329,0.645c-0.288,0.936 -0.79,2.31 -1.138,3.116c-0.167,0.386 -0.303,0.743 -0.303,0.793c-0,0.068 0.201,0.093 0.756,0.094c1.758,0.003 2.763,0.381 3.311,1.244c0.485,0.762 0.581,1.76 0.242,2.515c-0.109,0.244 -0.224,0.444 -0.254,0.444c-0.031,-0 -0.078,-0.158 -0.106,-0.351c-0.122,-0.841 -0.684,-1.598 -1.352,-1.82c-0.314,-0.104 -0.643,-0.12 -2.133,-0.101l-1.761,0.022l-0.616,0.443c-0.954,0.685 -1.953,1.667 -2.19,2.151c-0.211,0.432 -0.267,0.952 -0.151,1.407c0.085,0.333 -0.019,0.307 -0.449,-0.112Zm35.68,-2.58c-0,-0.056 -1.92,-1.857 -2.625,-2.462c-0.206,-0.177 -0.953,-0.839 -1.659,-1.472c-3.953,-3.537 -7.059,-5.975 -7.368,-5.784c-0.121,0.075 1.402,1.725 2.603,2.82c1.099,1.003 2.658,2.382 3.449,3.051c3.857,3.262 3.737,3.171 4.752,3.631c0.572,0.26 0.848,0.33 0.848,0.216Zm-33.544,-3.341c0.671,-0.306 1.908,-3.46 2.347,-5.986l0.087,-0.495l-0.66,-0.648c-0.362,-0.357 -0.759,-0.778 -0.88,-0.937c-0.135,-0.176 -0.263,-0.273 -0.326,-0.249c-0.081,0.031 -0.163,0.64 -0.357,2.649c-0.138,1.435 -0.258,2.619 -0.266,2.63c-0.033,0.049 -0.911,-0.516 -1.316,-0.847c-0.607,-0.495 -0.603,-0.493 -0.717,-0.447c-0.151,0.06 -2.743,4.238 -2.686,4.329c0.066,0.107 4.54,0.108 4.774,0.001Zm8.967,-4.189c0.067,-0.042 0.12,-0.5 0.18,-1.559c0.099,-1.722 0,-3.865 -0.234,-5.127c-0.076,-0.406 -0.125,-0.75 -0.11,-0.766c0.016,-0.015 0.486,0.141 1.045,0.347c2.472,0.912 4.082,1.334 7.47,1.958c1.384,0.255 1.749,0.31 3.429,0.52c1.779,0.223 2.08,0.242 2.18,0.143c0.154,-0.155 0.377,-0.067 -4.282,-1.683c-4.286,-1.488 -5.741,-2.031 -8.002,-2.99c-7.65,-3.243 -12.046,-6.153 -14.884,-9.851c-1.098,-1.431 -1.918,-3.148 -2.34,-4.9c-0.241,-1.003 -0.246,-2.93 -0.009,-3.798c0.35,-1.28 1.064,-2.413 1.982,-3.143c0.867,-0.688 1.499,-1.009 2.639,-1.335c0.451,-0.13 1.775,-0.215 3.19,-0.206c0.175,0.001 0.091,-0.171 -0.269,-0.551c-0.652,-0.689 -0.935,-1.478 -0.873,-2.432c0.045,-0.7 0.257,-1.31 0.618,-1.782c0.321,-0.422 0.302,-0.568 -0.085,-0.627c-0.281,-0.042 -0.284,-0.045 -0.052,-0.055c0.221,-0.009 0.235,-0.024 0.161,-0.163c-0.111,-0.205 0.005,-0.335 0.355,-0.397c0.6,-0.106 0.532,-0.153 -0.279,-0.192l-0.848,-0.04l1.074,-0.015c1.255,-0.017 1.789,0.064 2.376,0.36c0.671,0.339 0.723,0.3 0.633,-0.477c-0.074,-0.642 -0.551,-1.559 -1.047,-2.012c-0.388,-0.354 -1.189,-0.836 -1.391,-0.836c-0.187,0 -0.977,0.631 -1.478,1.181c-0.277,0.303 -0.474,0.471 -0.452,0.386c0.05,-0.189 -0.182,-0.33 -0.559,-0.339l-0.263,-0.006l0.203,-0.4c0.288,-0.569 0.269,-0.854 -0.097,-1.402c-0.812,-1.215 -2.369,-1.932 -4.236,-1.95c-0.507,-0.004 -1.027,0.031 -1.217,0.084c-0.547,0.151 -0.972,0.268 -0.971,0.393c-0,0.102 0.25,0.153 1.09,0.164c0.538,0.007 1.05,0.064 1.172,0.101l0.221,0.067l-0.231,0.121c-0.308,0.16 -0.811,0.74 -0.914,1.053c-0.046,0.139 -0.093,0.252 -0.105,0.252c-0.013,0 -0.144,-0.05 -0.292,-0.112c-0.148,-0.062 -0.625,-0.199 -1.06,-0.303c-1.134,-0.274 -1.893,-0.233 -2.698,0.142c-1.09,0.509 -2.093,1.299 -2.965,2.535c-1.093,1.55 -1.887,3.727 -2.263,6.027c-0.376,2.3 -0.162,0.934 -0.328,2.342c-0.102,0.868 -0.188,1.878 -0.186,3.629c0.03,2.141 0.148,3.149 0.541,4.843c1.26,5.432 4.488,9.811 9.874,13.398c1.359,0.905 4.231,2.533 4.469,2.533c0.191,-0 0.108,-0.229 -0.346,-0.947c-0.628,-0.996 -1.634,-3.068 -1.949,-4.018c-0.279,-0.837 -0.305,-1.101 -0.076,-0.743c0.136,0.212 0.3,0.437 1.692,2.315c0.406,0.548 0.86,1.162 1.008,1.364c1.317,1.796 2.733,3.669 3.235,4.278c1.919,2.33 3.786,3.769 5.796,4.467c0.692,0.241 0.639,0.23 0.758,0.154Zm-9.295,-38.56c0.051,-0.02 0.134,-0.02 0.184,0c0.051,0.021 0.01,0.037 -0.092,0.037c-0.101,0 -0.143,-0.016 -0.092,-0.037Zm-3.702,-1.755c-0.408,-0.149 -0.635,-0.335 -0.804,-0.662c-0.442,-0.851 0.189,-1.881 1.153,-1.884c0.46,-0.002 0.775,0.136 1.064,0.465c0.26,0.296 0.355,0.645 0.295,1.09c-0.1,0.742 -0.984,1.255 -1.708,0.991Zm29.517,33.871c-0.032,-0.096 -1.58,-1.076 -3.412,-2.16c-2.749,-1.627 -4.476,-2.772 -6.712,-4.452c-1.918,-1.442 -4.371,-3.662 -3.037,-2.749c0.703,0.481 6.035,3.38 8.423,4.58c1.948,0.978 2.573,1.252 2.661,1.163c0.024,-0.024 -0.578,-0.751 -1.338,-1.616c-1.386,-1.576 -3.553,-4.15 -4.168,-4.949c-0.354,-0.461 -0.364,-0.466 -1.153,-0.528c-0.594,-0.046 -2.016,-0.394 -2.547,-0.622c-0.192,-0.082 -0.364,-0.125 -0.382,-0.094c-0.019,0.03 0.181,0.311 0.444,0.624c0.263,0.312 0.458,0.601 0.433,0.642c-0.071,0.114 -1.865,0.087 -2.519,-0.038c-0.812,-0.155 -2.263,-0.652 -2.988,-1.023c-1.873,-0.959 -3.698,-2.479 -4.957,-4.129c-0.452,-0.593 -0.498,-0.753 -0.144,-0.504c0.266,0.188 2.541,1.556 3.27,1.966c0.576,0.325 1.685,0.795 2.508,1.062c0.68,0.222 1.767,0.442 1.813,0.368c0.052,-0.083 0.026,-0.12 -0.788,-1.135c-0.971,-1.21 -1.701,-2.186 -1.664,-2.223c0.017,-0.017 0.408,0.214 0.869,0.514c1.035,0.673 2.238,1.387 3.162,1.877c1.19,0.631 2.582,1.123 2.582,0.913c-0,-0.133 -2.331,-2.981 -3.636,-4.442c-3.219,-3.604 -6.166,-5.897 -8.976,-6.983c-0.938,-0.363 -2.106,-0.599 -3.246,-0.656c-1.823,-0.092 -2.957,0.315 -3.986,1.429c-2.51,2.718 -1.105,7.713 3.286,11.681c2.45,2.213 5.518,4.119 8.703,5.404c1.02,0.412 2.928,1.081 3.083,1.081c0.126,-0 0.032,-0.127 -0.188,-0.254c-1.294,-0.745 -4.312,-2.964 -5.735,-4.215c-1.325,-1.166 -3.513,-3.468 -3.171,-3.336c0.061,0.023 0.592,0.355 1.18,0.738c0.588,0.383 1.7,1.083 2.471,1.557c0.77,0.473 1.773,1.102 2.227,1.397c5.295,3.435 6.028,3.86 10.053,5.834c2.328,1.142 4.025,1.929 5.31,2.463c2.359,0.98 2.319,0.965 2.269,0.815Z" style="fill:#2d3334;fill-rule:nonzero;stroke:#000;stroke-width:0.15px;"/><path id="path3" d="M723.591,72.726c-0.88,-0.399 -1.187,-0.617 -2.84,-2.014c-0.832,-0.704 -1.692,-1.431 -1.912,-1.617c-0.791,-0.669 -2.35,-2.048 -3.449,-3.051c-1.201,-1.095 -2.724,-2.745 -2.603,-2.82c0.309,-0.191 3.415,2.247 7.368,5.784c0.706,0.633 1.453,1.295 1.659,1.472c0.705,0.605 2.625,2.406 2.625,2.462c-0,0.114 -0.276,0.044 -0.848,-0.216Zm-0.053,-0.529c-0.377,-0.358 -1,-0.927 -1.386,-1.263c-0.385,-0.336 -0.999,-0.884 -1.364,-1.218c-3.216,-2.938 -7.184,-6.159 -7.587,-6.159c-0.025,-0 0.21,0.299 0.523,0.664c0.71,0.829 3.239,3.158 5.407,4.978c0.338,0.284 1.164,0.983 1.836,1.554c0.672,0.57 1.38,1.144 1.573,1.276c0.318,0.217 1.484,0.802 1.625,0.815c0.032,0.003 -0.25,-0.288 -0.627,-0.647Zm-8.024,-13.465c-1.672,-0.688 -2.068,-0.858 -3.171,-1.353c-1.567,-0.703 -5.72,-2.746 -6.933,-3.409c-1.743,-0.953 -2.671,-1.527 -6.66,-4.114c-0.454,-0.295 -1.457,-0.924 -2.227,-1.397c-0.771,-0.474 -1.883,-1.174 -2.471,-1.557c-0.588,-0.383 -1.119,-0.715 -1.18,-0.738c-0.342,-0.132 1.846,2.17 3.171,3.336c1.423,1.251 4.441,3.47 5.735,4.215c0.22,0.127 0.314,0.254 0.188,0.254c-0.029,-0 -0.469,-0.136 -0.978,-0.302c-5.026,-1.64 -9.83,-4.716 -12.615,-8.076c-2.618,-3.159 -3.4,-6.542 -2.078,-8.988c0.426,-0.788 1.453,-1.68 2.264,-1.965c0.971,-0.341 2.429,-0.365 3.981,-0.065c2.137,0.414 4.59,1.784 7.043,3.936c1.352,1.185 2.222,2.051 3.519,3.504c1.305,1.461 3.636,4.309 3.636,4.442c-0,0.21 -1.392,-0.282 -2.582,-0.913c-0.924,-0.49 -2.127,-1.204 -3.162,-1.877c-0.461,-0.3 -0.852,-0.531 -0.869,-0.514c-0.037,0.037 0.693,1.013 1.664,2.223c0.814,1.015 0.84,1.052 0.788,1.135c-0.046,0.074 -1.133,-0.146 -1.813,-0.368c-0.823,-0.267 -1.932,-0.737 -2.508,-1.062c-0.729,-0.41 -3.004,-1.778 -3.27,-1.966c-0.354,-0.249 -0.308,-0.089 0.144,0.504c1.259,1.65 3.084,3.17 4.957,4.129c0.725,0.371 2.176,0.868 2.988,1.023c0.654,0.125 2.448,0.152 2.519,0.038c0.025,-0.041 -0.17,-0.33 -0.433,-0.642c-0.263,-0.313 -0.463,-0.594 -0.444,-0.624c0.018,-0.031 0.19,0.012 0.382,0.094c0.531,0.228 1.953,0.576 2.547,0.622c0.789,0.062 0.799,0.067 1.153,0.528c0.615,0.799 2.782,3.373 4.168,4.949c0.76,0.865 1.362,1.592 1.338,1.616c-0.088,0.089 -0.713,-0.185 -2.661,-1.163c-2.388,-1.2 -7.72,-4.099 -8.423,-4.58c-1.334,-0.913 1.119,1.307 3.037,2.749c2.236,1.68 3.963,2.825 6.712,4.452c2.583,1.528 3.688,2.263 3.38,2.247c-0.033,-0.002 -0.41,-0.147 -0.836,-0.323Zm-0.483,-0.546c-0.444,-0.277 -1.305,-0.797 -1.914,-1.156c-4.229,-2.493 -7.893,-5.131 -10.159,-7.315c-0.614,-0.591 -0.741,-0.761 -0.569,-0.761c0.041,-0 0.332,0.177 0.645,0.393c0.512,0.355 1.823,1.094 5.548,3.128c2.227,1.217 5.457,2.816 5.457,2.701c0,-0.041 -0.379,-0.489 -1.327,-1.566c-1.137,-1.292 -3.546,-4.174 -4.134,-4.947c-0.179,-0.236 -0.213,-0.248 -0.737,-0.272c-0.604,-0.028 -1.551,-0.229 -2.355,-0.501c-0.285,-0.097 -0.518,-0.154 -0.518,-0.128c0,0.027 0.186,0.256 0.413,0.511c0.227,0.254 0.395,0.507 0.374,0.561c-0.089,0.233 -1.957,0.23 -3,-0.004c-2.856,-0.642 -5.776,-2.611 -7.765,-5.239c-0.519,-0.685 -0.647,-0.907 -0.526,-0.907c0.024,0 0.381,0.211 0.793,0.468c2.792,1.743 3.765,2.262 5.138,2.74c0.731,0.255 1.994,0.576 2.048,0.521c0.014,-0.014 -0.317,-0.452 -0.735,-0.973c-0.418,-0.522 -1.002,-1.273 -1.298,-1.67c-0.808,-1.083 -0.799,-1.156 0.064,-0.559c0.947,0.656 2.941,1.827 4.014,2.36c0.925,0.459 1.989,0.865 2.065,0.789c0.025,-0.025 -0.508,-0.696 -2.048,-2.577c-2.643,-3.228 -5.748,-6.118 -8.007,-7.452c-2.243,-1.325 -3.908,-1.835 -5.984,-1.832c-1.508,0.001 -2.249,0.226 -3.154,0.958c-0.534,0.433 -0.981,1.103 -1.281,1.923c-0.976,2.662 0.392,6.318 3.519,9.403c0.496,0.489 1.222,1.153 1.613,1.475c2.093,1.724 4.947,3.405 7.635,4.498c1.056,0.43 2.513,0.941 2.553,0.896c0.007,-0.008 -0.455,-0.33 -1.026,-0.716c-2.922,-1.971 -5.678,-4.349 -7.347,-6.339c-0.813,-0.971 -0.761,-0.97 0.745,0.014c0.58,0.38 1.47,0.942 1.977,1.25c1.944,1.179 2.157,1.315 5.184,3.288c2.585,1.685 4.482,2.75 7.945,4.46c2.559,1.263 6.601,3.068 6.892,3.078c0.038,0.001 -0.293,-0.224 -0.738,-0.501Zm-39.565,-26.343c0.408,-2.501 1.141,-4.477 2.235,-6.027c0.871,-1.236 1.811,-2.072 2.901,-2.581c0.805,-0.375 1.564,-0.416 2.698,-0.142c0.435,0.104 0.913,0.241 1.064,0.304c0.218,0.092 0.273,0.258 -0.015,0.122c-0.549,-0.26 -1.65,-0.487 -2.356,-0.485c-0.584,0.001 -0.732,0.03 -1.231,0.243c-1.158,0.493 -2.178,1.41 -3.105,2.79c-0.994,1.48 -1.652,3.287 -2.078,5.702c0.086,0.258 -0.467,2.235 -0.113,0.074Zm13.406,-3.554c0.067,-0.066 0.052,-0.143 -0.063,-0.329c-0.118,-0.19 -0.133,-0.273 -0.07,-0.391c0.065,-0.121 0.052,-0.166 -0.069,-0.242c-0.083,-0.051 -0.15,-0.151 -0.15,-0.223c0,-0.071 -0.049,-0.129 -0.11,-0.129c-0.061,-0 -0.111,-0.047 -0.111,-0.103c0,-0.056 -0.083,-0.123 -0.184,-0.149c-0.167,-0.042 -0.271,-0.265 -0.123,-0.265c0.034,0 0.061,-0.044 0.061,-0.097c0,-0.076 -0.128,-0.091 -0.559,-0.066c-0.308,0.017 -0.676,-0.003 -0.818,-0.044c-0.225,-0.066 -0.202,-0.071 0.185,-0.039c0.309,0.025 0.618,-0.011 1.026,-0.117c0.84,-0.22 1.193,-0.428 1.743,-1.101c0.152,-0.187 0.385,-0.465 0.378,-0.273c-0.007,0.191 0.204,0.219 0.451,0.322c0.32,0.129 0.136,0.452 -0.307,1.085c-0.444,0.634 -0.341,0.686 0.009,0.728c0.35,0.042 -0.504,-0.054 1.533,-0.051c2.036,0.003 -0.03,0.174 0.229,0.658c0.097,0.181 -0.245,0.654 -0.432,0.687c-0.441,0.077 -1.756,-0.156 -2.275,0.073c-0.395,0.175 -0.466,0.189 -0.344,0.066Z" style="fill:#3c4345;fill-rule:nonzero;"/><path id="path4" d="M723.499,72.553c-0.814,-0.382 -1.101,-0.586 -2.532,-1.8c-0.672,-0.571 -1.498,-1.27 -1.836,-1.554c-2.168,-1.82 -4.697,-4.149 -5.407,-4.978c-0.313,-0.365 -0.548,-0.664 -0.523,-0.664c0.403,-0 4.371,3.221 7.587,6.159c0.365,0.334 0.979,0.882 1.364,1.218c0.867,0.756 2.091,1.918 2.013,1.91c-0.032,-0.003 -0.332,-0.134 -0.666,-0.291Zm-8.833,-14.298c-1.915,-0.795 -3.603,-1.567 -5.789,-2.646c-3.463,-1.71 -5.36,-2.775 -7.945,-4.46c-3.027,-1.973 -3.24,-2.109 -5.184,-3.288c-0.507,-0.308 -1.397,-0.87 -1.977,-1.25c-1.506,-0.984 -1.558,-0.985 -0.745,-0.014c1.669,1.99 4.425,4.368 7.347,6.339c0.571,0.386 1.033,0.708 1.026,0.716c-0.008,0.008 -0.311,-0.079 -0.675,-0.193c-1.076,-0.338 -3.013,-1.155 -4.238,-1.788c-6.269,-3.237 -10.221,-7.608 -10.688,-11.819c-0.189,-1.706 0.445,-3.491 1.562,-4.395c0.905,-0.732 1.646,-0.957 3.154,-0.958c2.076,-0.003 3.741,0.507 5.984,1.832c2.259,1.334 5.364,4.224 8.007,7.452c1.54,1.881 2.073,2.552 2.048,2.577c-0.076,0.076 -1.14,-0.33 -2.065,-0.789c-1.073,-0.533 -3.067,-1.704 -4.014,-2.36c-0.863,-0.597 -0.872,-0.524 -0.064,0.559c0.296,0.397 0.88,1.148 1.298,1.67c0.418,0.521 0.749,0.959 0.735,0.973c-0.054,0.055 -1.317,-0.266 -2.048,-0.521c-1.373,-0.478 -2.346,-0.997 -5.138,-2.74c-0.788,-0.492 -0.836,-0.514 -0.836,-0.39c-0,0.138 1.123,1.566 1.731,2.199c1.002,1.046 2.529,2.184 3.838,2.861c0.662,0.343 2.041,0.845 2.765,1.008c1.043,0.234 2.911,0.237 3,0.004c0.021,-0.054 -0.147,-0.307 -0.374,-0.561c-0.227,-0.255 -0.413,-0.484 -0.413,-0.511c-0,-0.026 0.233,0.031 0.518,0.128c0.804,0.272 1.751,0.473 2.355,0.501c0.524,0.024 0.558,0.036 0.737,0.272c0.588,0.773 2.997,3.655 4.134,4.947c0.948,1.077 1.327,1.525 1.327,1.566c0,0.115 -3.23,-1.484 -5.457,-2.701c-3.725,-2.034 -5.036,-2.773 -5.548,-3.128c-0.313,-0.216 -0.604,-0.393 -0.645,-0.393c-0.172,-0 -0.045,0.17 0.569,0.761c2.266,2.184 5.93,4.822 10.159,7.315c1.462,0.861 2.739,1.66 2.652,1.657c-0.039,-0.001 -0.535,-0.196 -1.103,-0.432Zm-37.062,-24.487c-0.8,-0.058 -1.499,-0.008 -2.041,-0.189c-0.542,-0.18 -0.3,-0.37 0.002,-1.956c0.303,-1.585 1.121,-4.296 2.083,-5.73c0.963,-1.433 1.956,-2.123 3.114,-2.616c0.499,-0.213 0.647,-0.242 1.231,-0.243c0.706,-0.002 1.807,0.225 2.356,0.485c0.16,0.075 0.309,0.107 0.332,0.07c0.022,-0.036 0.335,1.501 0.821,1.939c0.474,0.426 0.961,0.592 1.728,0.591c0.513,-0.001 0.551,0.007 0.295,0.064c-0.163,0.036 -0.478,0.048 -0.701,0.028c-0.367,-0.034 -0.381,-0.03 -0.148,0.039c0.142,0.042 0.51,0.062 0.818,0.045c0.431,-0.025 0.559,-0.01 0.559,0.066c0,0.053 -0.027,0.097 -0.061,0.097c-0.148,0 -0.044,0.223 0.123,0.265c0.101,0.026 0.184,0.093 0.184,0.149c0,0.056 0.05,0.103 0.111,0.103c0.061,-0 0.11,0.058 0.11,0.129c0,0.072 0.067,0.172 0.15,0.223c0.121,0.076 0.134,0.121 0.069,0.242c-0.063,0.118 -0.048,0.201 0.07,0.391c0.119,0.193 0.132,0.263 0.06,0.34c-0.074,0.079 -0.068,0.087 0.052,0.04c0.662,-0.263 -1.515,1.196 -1.877,1.509c-2.033,1.745 -3.538,2.653 -5.418,3.277c-1.36,0.45 -2.612,0.744 -4.022,0.642Z" style="fill:#454e51;fill-rule:nonzero;"/><path id="path7" d="M694.465,27.187c-0.643,-0.327 -1.308,-0.443 -3.097,-0.388c-0.879,0.026 -1.334,0.059 -1.425,-0.009c-0.091,-0.067 0.034,-0.836 0.478,-1.363c0.773,-0.917 0.99,-1.07 1.541,-1.4c0.551,-0.33 0.817,-0.279 1.555,0.271c0.739,0.55 1.239,1.315 1.412,2.142c0.174,0.827 0.178,1.074 -0.464,0.747Zm-8.243,-1.3c-0.454,-0.208 -1.43,-1.024 -1.444,-2.034c-0.01,-0.661 0.096,-1.112 0.858,-1.612c0.101,-0.067 0.054,-0.015 0.265,-0.157c-0.093,-0.096 -0.463,-0.136 -1.06,-0.164c-0.597,-0.028 -1.517,0.024 -1.539,-0.124c-0.021,-0.149 0.512,-0.398 1.564,-0.567c0.702,-0.113 1.987,0.008 2.773,0.298c0.786,0.289 1.436,0.763 2.079,1.518c0.642,0.755 0.534,1.386 -0.148,2.066c-0.683,0.68 -0.937,0.742 -1.646,0.923c-0.652,0.167 -1.248,0.06 -1.702,-0.147Zm2.423,-2.091c-0.023,-0.635 -0.598,-1.304 -1.411,-1.283c-0.812,0.021 -1.365,0.672 -1.352,1.362c0.013,0.689 0.553,1.313 1.429,1.307c0.876,-0.006 1.357,-0.751 1.334,-1.386Z" style="fill:#dabc59;fill-rule:nonzero;stroke:#000;stroke-width:0.15px;"/><path id="path6" d="M692.481,59.691c-0.581,-0.733 -4.376,-6.028 -4.939,-6.845c-0.331,-0.481 -0.6,-0.456 -0.15,0.795c0.451,1.252 1.436,3.203 2.004,4.12c0.568,0.918 0.758,0.884 -0.324,0.421c-0.366,-0.156 -4.074,-2.261 -6.321,-4.151c-2.246,-1.891 -3.731,-3.48 -5.43,-6.545c-1.7,-3.065 -2.405,-6.91 -2.359,-9.247c0.046,-2.338 0.099,-4.427 0.283,-4.922c0.631,0.298 1.691,0.326 3.756,0.265c2.065,-0.061 4.849,-1.243 7.008,-2.991c2.158,-1.747 2.168,-1.762 3.057,-2.257c0.781,-0.435 3.282,-0.864 2.728,-0.24c-0.543,0.61 -0.748,1.023 -0.819,1.891c-0.07,0.867 0.145,1.516 0.472,2.022c0.327,0.506 0.693,0.897 0.677,0.9c-0.015,0.003 -0.569,0.046 -1.099,0.058c-6.476,0.089 -7.113,5.148 -6.927,7.264c0.187,2.116 1.268,5.539 4.965,8.863c3.698,3.324 9.453,6.024 14.564,8.035c5.111,2.012 7.983,2.769 9.713,3.507c1.731,0.738 -2.413,0.021 -4.627,-0.334c-2.215,-0.356 -5.993,-1.309 -7.52,-1.91c-1.528,-0.601 -1.608,-0.9 -1.406,0.3c0.202,1.2 0.243,2.301 0.215,4.141c-0.028,1.841 0.059,2.597 -0.499,2.586c-0.282,-0.007 -2.279,-0.995 -3.114,-1.689c-0.834,-0.694 -3.327,-3.304 -3.908,-4.037Z" style="fill:#fffee3;"/></g></g><defs><linearGradient id="_Linear1" x1="0" y1="0" x2="1" y2="0" gradientUnits="userSpaceOnUse" gradientTransform="matrix(1.85345e-14,274.355,-302.692,1.67994e-14,148.417,13.2602)"><stop offset="0" style="stop-color:#fa2dac;stop-opacity:0.99"/><stop offset="1" style="stop-color:#4b27a0;stop-opacity:0.99"/></linearGradient><linearGradient id="_Linear2" x1="0" y1="0" x2="1" y2="-0.00271685" gradientUnits="userSpaceOnUse" gradientTransform="matrix(-4.61925,274.979,-303.38,-4.18681,62.1497,14.9955)"><stop offset="0" style="stop-color:#f00697;stop-opacity:1"/><stop offset="1" style="stop-color:#3c1f81;stop-opacity:1"/></linearGradient><linearGradient id="_Linear3" x1="0" y1="0" x2="1" y2="0" gradientUnits="userSpaceOnUse" gradientTransform="matrix(5.41222e-15,88.0316,-88.3882,5.39038e-15,653.186,228.606)"><stop offset="0" style="stop-color:#4967f4;stop-opacity:1"/><stop offset="1" style="stop-color:#2a34e7;stop-opacity:1"/></linearGradient><linearGradient id="_Linear4" x1="0" y1="0" x2="1" y2="0" gradientUnits="userSpaceOnUse" gradientTransform="matrix(5.41222e-15,88.0316,-88.3882,5.39038e-15,653.186,228.606)"><stop offset="0" style="stop-color:#4967f4;stop-opacity:1"/><stop offset="1" style="stop-color:#2a34e7;stop-opacity:1"/></linearGradient><linearGradient id="_Linear5" x1="0" y1="0" x2="1" y2="0" gradientUnits="userSpaceOnUse" gradientTransform="matrix(5.41222e-15,88.0316,-88.3882,5.39038e-15,653.186,228.606)"><stop offset="0" style="stop-color:#4967f4;stop-opacity:1"/><stop offset="1" style="stop-color:#2a34e7;stop-opacity:1"/></linearGradient><linearGradient id="_Linear6" x1="0" y1="0" x2="1" y2="0" gradientUnits="userSpaceOnUse" gradientTransform="matrix(5.41222e-15,88.0316,-88.3882,5.39038e-15,653.186,228.606)"><stop offset="0" style="stop-color:#4967f4;stop-opacity:1"/><stop offset="1" style="stop-color:#2a34e7;stop-opacity:1"/></linearGradient><linearGradient id="_Linear7" x1="0" y1="0" x2="1" y2="0" gradientUnits="userSpaceOnUse" gradientTransform="matrix(5.41222e-15,88.0316,-88.3882,5.39038e-15,653.186,228.606)"><stop offset="0" style="stop-color:#4967f4;stop-opacity:1"/><stop offset="1" style="stop-color:#2a34e7;stop-opacity:1"/></linearGradient><linearGradient id="_Linear8" x1="0" y1="0" x2="1" y2="0" gradientUnits="userSpaceOnUse" gradientTransform="matrix(5.41222e-15,88.0316,-88.3882,5.39038e-15,653.186,228.606)"><stop offset="0" style="stop-color:#4967f4;stop-opacity:1"/><stop offset="1" style="stop-color:#2a34e7;stop-opacity:1"/></linearGradient><linearGradient id="_Linear9" x1="0" y1="0" x2="1" y2="0" gradientUnits="userSpaceOnUse" gradientTransform="matrix(5.41222e-15,88.0316,-88.3882,5.39038e-15,653.186,228.606)"><stop offset="0" style="stop-color:#4967f4;stop-opacity:1"/><stop offset="1" style="stop-color:#2a34e7;stop-opacity:1"/></linearGradient><linearGradient id="_Linear10" x1="0" y1="0" x2="1" y2="0" gradientUnits="userSpaceOnUse" gradientTransform="matrix(5.41222e-15,88.0316,-88.3882,5.39038e-15,653.186,228.606)"><stop offset="0" style="stop-color:#4967f4;stop-opacity:1"/><stop offset="1" style="stop-color:#2a34e7;stop-opacity:1"/></linearGradient><linearGradient id="_Linear11" x1="0" y1="0" x2="1" y2="0" gradientUnits="userSpaceOnUse" gradientTransform="matrix(5.41222e-15,88.0316,-88.3882,5.39038e-15,653.186,228.606)"><stop offset="0" style="stop-color:#4967f4;stop-opacity:1"/><stop offset="1" style="stop-color:#2a34e7;stop-opacity:1"/></linearGradient><linearGradient id="_Linear12" x1="0" y1="0" x2="1" y2="0" gradientUnits="userSpaceOnUse" gradientTransform="matrix(5.41222e-15,88.0316,-88.3882,5.39038e-15,653.186,228.606)"><stop offset="0" style="stop-color:#4967f4;stop-opacity:1"/><stop offset="1" style="stop-color:#2a34e7;stop-opacity:1"/></linearGradient><linearGradient id="_Linear13" x1="0" y1="0" x2="1" y2="0" gradientUnits="userSpaceOnUse" gradientTransform="matrix(5.41222e-15,88.0316,-88.3882,5.39038e-15,653.186,228.606)"><stop offset="0" style="stop-color:#4967f4;stop-opacity:1"/><stop offset="1" style="stop-color:#2a34e7;stop-opacity:1"/></linearGradient><linearGradient id="_Linear14" x1="0" y1="0" x2="1" y2="0" gradientUnits="userSpaceOnUse" gradientTransform="matrix(5.41222e-15,88.0316,-88.3882,5.39038e-15,653.186,228.606)"><stop offset="0" style="stop-color:#4967f4;stop-opacity:1"/><stop offset="1" style="stop-color:#2a34e7;stop-opacity:1"/></linearGradient><linearGradient id="_Linear15" x1="0" y1="0" x2="1" y2="0" gradientUnits="userSpaceOnUse" gradientTransform="matrix(5.41222e-15,88.0316,-88.3882,5.39038e-15,653.186,228.606)"><stop offset="0" style="stop-color:#4967f4;stop-opacity:1"/><stop offset="1" style="stop-color:#2a34e7;stop-opacity:1"/></linearGradient><linearGradient id="_Linear16" x1="0" y1="0" x2="1" y2="0" gradientUnits="userSpaceOnUse" gradientTransform="matrix(5.41222e-15,88.0316,-88.3882,5.39038e-15,653.186,228.606)"><stop offset="0" style="stop-color:#4967f4;stop-opacity:1"/><stop offset="1" style="stop-color:#2a34e7;stop-opacity:1"/></linearGradient><linearGradient id="_Linear17" x1="0" y1="0" x2="1" y2="0" gradientUnits="userSpaceOnUse" gradientTransform="matrix(5.41222e-15,88.0316,-88.3882,5.39038e-15,653.186,228.606)"><stop offset="0" style="stop-color:#4967f4;stop-opacity:1"/><stop offset="1" style="stop-color:#2a34e7;stop-opacity:1"/></linearGradient><linearGradient id="_Linear18" x1="0" y1="0" x2="1" y2="0" gradientUnits="userSpaceOnUse" gradientTransform="matrix(947.732,0,0,947.732,347.661,57.318)"><stop offset="0" style="stop-color:#3b45ef;stop-opacity:1"/><stop offset="0.5" style="stop-color:#2b80ee;stop-opacity:1"/><stop offset="1" style="stop-color:#3b45ef;stop-opacity:1"/></linearGradient><linearGradient id="_Linear19" x1="0" y1="0" x2="1" y2="0" gradientUnits="userSpaceOnUse" gradientTransform="matrix(892.34,0,0,217.987,334.984,110.931)"><stop offset="0" style="stop-color:#121fe2;stop-opacity:1"/><stop offset="0.5" style="stop-color:#1166d4;stop-opacity:1"/><stop offset="1" style="stop-color:#121fe2;stop-opacity:1"/></linearGradient><linearGradient id="_Linear20" x1="0" y1="0" x2="1" y2="0" gradientUnits="userSpaceOnUse" gradientTransform="matrix(947.732,0,0,947.732,347.661,57.318)"><stop offset="0" style="stop-color:#3b45ef;stop-opacity:1"/><stop offset="0.5" style="stop-color:#2b80ee;stop-opacity:1"/><stop offset="1" style="stop-color:#3b45ef;stop-opacity:1"/></linearGradient><linearGradient id="_Linear21" x1="0" y1="0" x2="1" y2="0" gradientUnits="userSpaceOnUse" gradientTransform="matrix(892.34,0,0,217.987,334.984,110.931)"><stop offset="0" style="stop-color:#121fe2;stop-opacity:1"/><stop offset="0.5" style="stop-color:#1166d4;stop-opacity:1"/><stop offset="1" style="stop-color:#121fe2;stop-opacity:1"/></linearGradient><linearGradient id="_Linear22" x1="0" y1="0" x2="1" y2="0" gradientUnits="userSpaceOnUse" gradientTransform="matrix(947.732,0,0,947.732,347.661,57.318)"><stop offset="0" style="stop-color:#3b45ef;stop-opacity:1"/><stop offset="0.5" style="stop-color:#2b80ee;stop-opacity:1"/><stop offset="1" style="stop-color:#3b45ef;stop-opacity:1"/></linearGradient><linearGradient id="_Linear23" x1="0" y1="0" x2="1" y2="0" gradientUnits="userSpaceOnUse" gradientTransform="matrix(892.34,0,0,217.987,334.984,110.931)"><stop offset="0" style="stop-color:#121fe2;stop-opacity:1"/><stop offset="0.5" style="stop-color:#1166d4;stop-opacity:1"/><stop offset="1" style="stop-color:#121fe2;stop-opacity:1"/></linearGradient><linearGradient id="_Linear24" x1="0" y1="0" x2="1" y2="0" gradientUnits="userSpaceOnUse" gradientTransform="matrix(947.732,0,0,947.732,347.661,57.318)"><stop offset="0" style="stop-color:#3b45ef;stop-opacity:1"/><stop offset="0.5" style="stop-color:#2b80ee;stop-opacity:1"/><stop offset="1" style="stop-color:#3b45ef;stop-opacity:1"/></linearGradient><linearGradient id="_Linear25" x1="0" y1="0" x2="1" y2="0" gradientUnits="userSpaceOnUse" gradientTransform="matrix(892.34,0,0,217.987,334.984,110.931)"><stop offset="0" style="stop-color:#121fe2;stop-opacity:1"/><stop offset="0.5" style="stop-color:#1166d4;stop-opacity:1"/><stop offset="1" style="stop-color:#121fe2;stop-opacity:1"/></linearGradient><linearGradient id="_Linear26" x1="0" y1="0" x2="1" y2="0" gradientUnits="userSpaceOnUse" gradientTransform="matrix(947.732,0,0,947.732,347.661,57.318)"><stop offset="0" style="stop-color:#3b45ef;stop-opacity:1"/><stop offset="0.5" style="stop-color:#2b80ee;stop-opacity:1"/><stop offset="1" style="stop-color:#3b45ef;stop-opacity:1"/></linearGradient><linearGradient id="_Linear27" x1="0" y1="0" x2="1" y2="0" gradientUnits="userSpaceOnUse" gradientTransform="matrix(892.34,0,0,217.987,334.984,110.931)"><stop offset="0" style="stop-color:#121fe2;stop-opacity:1"/><stop offset="0.5" style="stop-color:#1166d4;stop-opacity:1"/><stop offset="1" style="stop-color:#121fe2;stop-opacity:1"/></linearGradient><linearGradient id="_Linear28" x1="0" y1="0" x2="1" y2="0" gradientUnits="userSpaceOnUse" gradientTransform="matrix(947.732,0,0,947.732,347.661,57.318)"><stop offset="0" style="stop-color:#3b45ef;stop-opacity:1"/><stop offset="0.5" style="stop-color:#2b80ee;stop-opacity:1"/><stop offset="1" style="stop-color:#3b45ef;stop-opacity:1"/></linearGradient><linearGradient id="_Linear29" x1="0" y1="0" x2="1" y2="0" gradientUnits="userSpaceOnUse" gradientTransform="matrix(892.34,0,0,217.987,334.984,110.931)"><stop offset="0" style="stop-color:#121fe2;stop-opacity:1"/><stop offset="0.5" style="stop-color:#1166d4;stop-opacity:1"/><stop offset="1" style="stop-color:#121fe2;stop-opacity:1"/></linearGradient></defs></svg>